<svg xmlns="http://www.w3.org/2000/svg" viewBox="0 0 497.84 466.02">
    <defs>
        <style>.cls-1{fill:currentColor;}</style>
    </defs>
    <g id="Layer_2" data-name="Layer 2">
        <g id="_Layer_" data-name="&lt;Layer&gt;">
            <path class="cls-1"  d="M286.78,376.55H144.83a7,7,0,0,1-7-7V254.14a7,7,0,0,1,7-7H286.78a7,7,0,0,1,7,7V369.57A7,7,0,0,1,286.78,376.55Zm-135-14h128V261.12h-128Z"/>
            <path class="cls-1"  d="M456.63,376.55H314.68a7,7,0,0,1-7-7V254.14a7,7,0,0,1,7-7h142a7,7,0,0,1,7,7V369.57A7,7,0,0,1,456.63,376.55Zm-135-14h128V261.12h-128Z"/>
            <path class="cls-1" d="M429.55,420.86H93.14A20.14,20.14,0,0,1,73,400.75V84.49L10.49,43A23.42,23.42,0,0,1,0,23.49,23.14,23.14,0,0,1,12.08,3a23.18,23.18,0,0,1,23.8.63l82.29,51.52a7,7,0,0,1,3.29,5.92V362.59H428.3c16.21,0,29.54,12.11,30.35,27.57a28.94,28.94,0,0,1-8,21.61A29.26,29.26,0,0,1,429.55,420.86ZM23.46,14a9.45,9.45,0,0,0-4.61,1.21A9.34,9.34,0,0,0,14,23.49a9.49,9.49,0,0,0,4.24,7.91L83.87,74.91A7,7,0,0,1,87,80.74v320a6.15,6.15,0,0,0,6.15,6.14H429.55a15.17,15.17,0,0,0,15.15-16c-.41-7.91-7.77-14.35-16.4-14.35H114.47a7,7,0,0,1-7-7V64.91l-79-49.46A9.49,9.49,0,0,0,23.46,14Z"/>
            <path class="cls-1" d="M352.43,466a35.65,35.65,0,0,1-29.21-56.16,7,7,0,0,1,5.72-3h47a7,7,0,0,1,5.72,3A35.65,35.65,0,0,1,352.43,466Zm-19.54-45.16a21.46,21.46,0,0,0-2.19,9.46,21.73,21.73,0,1,0,43.46,0,21.46,21.46,0,0,0-2.19-9.46Z"/>
            <path class="cls-1" d="M159,466a35.64,35.64,0,0,1-29.21-56.15,7,7,0,0,1,5.72-3h47a7,7,0,0,1,5.72,3A35.64,35.64,0,0,1,159,466Zm-19.53-45.16a21.36,21.36,0,0,0-2.2,9.46,21.74,21.74,0,1,0,43.47,0,21.5,21.5,0,0,0-2.2-9.46Z"/>
            <path class="cls-1" d="M402.75,295.47H368.56a7,7,0,0,1-7-7V254.14a7,7,0,0,1,7-7h34.19a7,7,0,0,1,7,7v34.35A7,7,0,0,1,402.75,295.47Zm-27.21-14h20.23V261.12H375.54Z"/>
            <path class="cls-1" d="M232.9,295.47H198.71a7,7,0,0,1-7-7V254.14a7,7,0,0,1,7-7H232.9a7,7,0,0,1,7,7v34.35A7,7,0,0,1,232.9,295.47Zm-27.2-14h20.22V261.12H205.7Z"/>
            <path class="cls-1" d="M286.78,261.12H144.83a7,7,0,0,1-7-7V138.72a7,7,0,0,1,7-7H286.78a7,7,0,0,1,7,7V254.14A7,7,0,0,1,286.78,261.12Zm-135-14h128V145.71h-128Z"/>
            <path class="cls-1" d="M232.9,180.05H198.71a7,7,0,0,1-7-7V138.72a7,7,0,0,1,7-7H232.9a7,7,0,0,1,7,7v34.35A7,7,0,0,1,232.9,180.05Zm-27.2-14h20.22V145.71H205.7Z"/>
            <path class="cls-1" d="M399.33,466H36.52a7,7,0,0,1,0-14H399.33a7,7,0,1,1,0,14Z"/>
            <path class="cls-1" d="M464.29,106.75H415.67a7,7,0,0,1,0-14h48.62a7,7,0,0,1,0,14Z"/>
            <path class="cls-1" d="M464.29,129.73H415.67a7,7,0,0,1,0-14h48.62a7,7,0,0,1,0,14Z"/>
            <path class="cls-1" d="M464.29,152.7H415.67a7,7,0,0,1,0-14h48.62a7,7,0,0,1,0,14Z"/>
            <path class="cls-1" d="M490.86,196.71H389.11a7,7,0,0,1-7-7V63.26a7,7,0,0,1,7-7H490.86a7,7,0,0,1,7,7V189.73A7,7,0,0,1,490.86,196.71Zm-94.76-14h87.78V70.24H396.1Z"/>
            <path class="cls-1" d="M456.63,261.12H314.68a7,7,0,0,1-7-7V138.72a7,7,0,0,1,7-7h74.43a7,7,0,0,1,7,7v44h60.53a7,7,0,0,1,7,7v64.41A7,7,0,0,1,456.63,261.12Zm-135-14h128V196.71H389.11a7,7,0,0,1-7-7v-44H321.66Z"/>
            <path class="cls-1" d="M389.11,180.05H360.36a7,7,0,0,1-7-7V138.72a7,7,0,0,1,7-7h28.75a7,7,0,0,1,7,7v34.35A7,7,0,0,1,389.11,180.05Zm-21.77-14h14.79V145.71H367.34Z"/>
        </g>
    </g>
</svg>