<svg xmlns="http://www.w3.org/2000/svg" viewBox="0 0 673 404">
    <defs>
        <style>.cls-1{fill:#231f20;}</style>
    </defs>
    <g id="Layer_2" data-name="Layer 2">
        <g id="Layer_5" data-name="Layer 5">
            <path class="cls-1"
                  d="M628,0V20H359V0H314V20H45V0H0V404H45V370H314v34h45V370H628v34h45V0ZM347,370v22H326V12h21V370ZM33,370v22H12V12H33V370ZM314,174H277.45V68.73H83.27V174H45V62H314Zm0,30H45V186H314Zm0,124H277.45V222.73H83.27V328H45V216H314Zm-48.55-.41H95.27V234.73h65.08v33.91h40V234.73h65.07Zm-77.07-70.95h-16V234.73h16Zm0-154h-16V80.73h16Zm12,12V80.73h65.07v92.86H95.27V80.73h65.08v33.91ZM314,50H45V32H314ZM45,340H314v18H45ZM628,174H594.45V68.73H400.27V174H359V62H628Zm0,30H359V186H628Zm0,124H594.45V222.73H400.27V328H359V216H628Zm-45.55-.41H412.27V234.73h65.08v33.91h40V234.73h65.07Zm-77.07-70.95h-16V234.73h16Zm0-154h-16V80.73h16Zm12,12V80.73h65.07v92.86H412.27V80.73h65.08v33.91ZM628,50H359V32H628ZM359,340H628v18H359Zm281,30V12h21V392H640Z"/>
            <path class="cls-1"
                  d="M178.16,152.81v5.33h-5.44a1,1,0,0,0-1,1v2.38a1,1,0,0,0,1,1H188a1,1,0,0,0,1-1v-2.38a1,1,0,0,0-1-1h-5.44v-5.32a8.67,8.67,0,0,0,6.51-9.34V132.84a1,1,0,0,0-1-1h-9.27a1,1,0,0,0-.89.55l-2,4,.73-3.32a1,1,0,0,0-1-1.22h-2.94a1,1,0,0,0-1,1v10.64a8.67,8.67,0,0,0,6.48,9.33Z"/>
            <path class="cls-1"
                  d="M202.31,147.11a7,7,0,0,1,6.45,1.22,1,1,0,0,0,1.34,0,6.49,6.49,0,0,1,4.34-1.52,6.73,6.73,0,0,1,3.88,1.18v9.61s0,.1,0,.12a2,2,0,0,1-.26,1.14q-.07.09-.36.09c-.46,0-.59-.14-.64-.2a1.79,1.79,0,0,1-.34-1.17,1,1,0,0,0-.93-1.06l-1.57-.1a1,1,0,0,0-1.06.93,5.31,5.31,0,0,0,1.29,3.84,4.33,4.33,0,0,0,3.25,1.33,3.94,3.94,0,0,0,3-1.25,5.21,5.21,0,0,0,1.18-3.72V147.28a7.24,7.24,0,0,1,2.57-.47,6.45,6.45,0,0,1,4.34,1.52,1,1,0,0,0,1.35,0,6.45,6.45,0,0,1,4.34-1.52,7.08,7.08,0,0,1,3,.65,1,1,0,0,0,1.35-1.29,20.46,20.46,0,0,0-17.46-12.64,3.15,3.15,0,0,0-.61-1.62,1.25,1.25,0,0,0-1.8,0,3.36,3.36,0,0,0-.65,1.64,20.5,20.5,0,0,0-17.22,12.21,1,1,0,0,0,1.2,1.36Z"/>
            <path class="cls-1"
                  d="M152.88,158.67h-4.61a1,1,0,0,0,.36-.75V141.78h3.78a1,1,0,0,0,.77-1.63l-6.92-8.56a1,1,0,0,0-.77-.38,1,1,0,0,0-.78.37l-6.87,8.5-6.86-8.5a1,1,0,0,0-1.56,0l-6.92,8.57a1,1,0,0,0,.77,1.63h3.78v16.14a1,1,0,0,0,.36.75H122.8a1,1,0,0,0-1,1v1.85a1,1,0,0,0,1,1h30.08a1,1,0,0,0,1-1v-1.85A1,1,0,0,0,152.88,158.67Zm-19.54-.75V141.78h3.78a1,1,0,0,0,.72-.31,1,1,0,0,0,.72.31h3.78v16.14a1,1,0,0,0,.36.75H133A1,1,0,0,0,133.34,157.92Z"/>
            <path class="cls-1"
                  d="M189.1,298.37a8.69,8.69,0,0,0,0-.89V286.84a1,1,0,0,0-1-1h-9.27a1,1,0,0,0-.89.55l-2,4,.73-3.32a1,1,0,0,0-1-1.22h-2.94a1,1,0,0,0-1,1v10.64a8.67,8.67,0,0,0,6.48,9.33v5.33h-5.44a1,1,0,0,0-1,1v2.38a1,1,0,0,0,1,1H188a1,1,0,0,0,1-1v-2.38a1,1,0,0,0-1-1h-5.44v-5.32A8.68,8.68,0,0,0,189.1,298.37Z"/>
            <path class="cls-1"
                  d="M202.31,301.11a7,7,0,0,1,6.45,1.22,1,1,0,0,0,1.34,0,6.49,6.49,0,0,1,4.34-1.52,6.73,6.73,0,0,1,3.88,1.18v9.61s0,.1,0,.12a2,2,0,0,1-.26,1.14q-.07.09-.36.09c-.46,0-.59-.14-.64-.2a1.79,1.79,0,0,1-.34-1.17,1,1,0,0,0-.93-1.06l-1.57-.1a1,1,0,0,0-.72.24,1,1,0,0,0-.34.69,5.31,5.31,0,0,0,1.29,3.84,4.33,4.33,0,0,0,3.25,1.33,3.94,3.94,0,0,0,3-1.25,5.21,5.21,0,0,0,1.18-3.72V301.28a7.24,7.24,0,0,1,2.57-.47,6.45,6.45,0,0,1,4.34,1.52,1,1,0,0,0,1.35,0,6.45,6.45,0,0,1,4.34-1.52,7.08,7.08,0,0,1,3,.65,1,1,0,0,0,1.35-1.29,20.46,20.46,0,0,0-17.46-12.64,3.15,3.15,0,0,0-.61-1.62,1.25,1.25,0,0,0-1.8,0,3.36,3.36,0,0,0-.65,1.64,20.5,20.5,0,0,0-17.22,12.21,1,1,0,0,0,1.2,1.36Z"/>
            <path class="cls-1"
                  d="M152.88,312.67h-4.61a1,1,0,0,0,.36-.75V295.78h3.78a1,1,0,0,0,.77-1.63l-6.92-8.56a1,1,0,0,0-.77-.38,1,1,0,0,0-.78.37l-6.87,8.5-6.86-8.5a1,1,0,0,0-1.56,0l-6.92,8.57a1,1,0,0,0,.77,1.63h3.78v16.14a1,1,0,0,0,.36.75H122.8a1,1,0,0,0-1,1v1.85a1,1,0,0,0,1,1h30.08a1,1,0,0,0,1-1v-1.85A1,1,0,0,0,152.88,312.67Zm-19.54-.75V295.78h3.78a1,1,0,0,0,.72-.31,1,1,0,0,0,.72.31h3.78v16.14a1,1,0,0,0,.36.75H133A1,1,0,0,0,133.34,311.92Z"/>
            <path class="cls-1"
                  d="M495.16,152.81v5.33h-5.44a1,1,0,0,0-1,1v2.38a1,1,0,0,0,1,1H505a1,1,0,0,0,1-1v-2.38a1,1,0,0,0-1-1h-5.44v-5.32a8.67,8.67,0,0,0,6.51-9.34V132.84a1,1,0,0,0-1-1h-9.27a1,1,0,0,0-.89.55l-2,4,.73-3.32a.94.94,0,0,0-.2-.84,1,1,0,0,0-.77-.38h-2.94a1,1,0,0,0-1,1v10.64a8.67,8.67,0,0,0,6.48,9.33Z"/>
            <path class="cls-1"
                  d="M519.31,147.11a7,7,0,0,1,6.45,1.22,1,1,0,0,0,1.34,0,6.49,6.49,0,0,1,4.34-1.52,6.73,6.73,0,0,1,3.88,1.18v9.61s0,.1,0,.12a2,2,0,0,1-.26,1.14q-.08.09-.36.09c-.46,0-.59-.14-.64-.2a1.79,1.79,0,0,1-.34-1.17,1,1,0,0,0-.93-1.06l-1.57-.1a1,1,0,0,0-1.06.93,5.31,5.31,0,0,0,1.29,3.84,4.33,4.33,0,0,0,3.25,1.33,3.94,3.94,0,0,0,3-1.25,5.21,5.21,0,0,0,1.18-3.72V147.28a7.24,7.24,0,0,1,2.57-.47,6.45,6.45,0,0,1,4.34,1.52,1,1,0,0,0,1.35,0,6.45,6.45,0,0,1,4.34-1.52,7.08,7.08,0,0,1,3,.65,1,1,0,0,0,1.35-1.29,20.46,20.46,0,0,0-17.46-12.64,3.15,3.15,0,0,0-.61-1.62,1.25,1.25,0,0,0-1.8,0,3.36,3.36,0,0,0-.65,1.64,20.5,20.5,0,0,0-17.22,12.21,1,1,0,0,0,1.2,1.36Z"/>
            <path class="cls-1"
                  d="M469.88,158.67h-4.61a1,1,0,0,0,.36-.75V141.78h3.78a1,1,0,0,0,.77-1.63l-6.92-8.56a1,1,0,0,0-.77-.38,1,1,0,0,0-.78.37l-6.87,8.5-6.86-8.5a1,1,0,0,0-1.56,0l-6.92,8.57a1,1,0,0,0,.77,1.63h3.78v16.14a1,1,0,0,0,.36.75H439.8a1,1,0,0,0-1,1v1.85a1,1,0,0,0,1,1h30.08a1,1,0,0,0,1-1v-1.85A1,1,0,0,0,469.88,158.67Zm-19.54-.75V141.78h3.78a1,1,0,0,0,.72-.31,1,1,0,0,0,.72.31h3.78v16.14a1,1,0,0,0,.36.75H450A1,1,0,0,0,450.34,157.92Z"/>
            <path class="cls-1"
                  d="M506.1,298.37a8.69,8.69,0,0,0-.05-.89V286.84a1,1,0,0,0-1-1h-9.27a1,1,0,0,0-.89.55l-2,4,.73-3.32a.94.94,0,0,0-.2-.84,1,1,0,0,0-.77-.38h-2.94a1,1,0,0,0-1,1v10.64a8.67,8.67,0,0,0,6.48,9.33v5.33h-5.44a1,1,0,0,0-1,1v2.38a1,1,0,0,0,1,1H505a1,1,0,0,0,1-1v-2.38a1,1,0,0,0-1-1h-5.44v-5.32A8.68,8.68,0,0,0,506.1,298.37Z"/>
            <path class="cls-1"
                  d="M519.31,301.11a7,7,0,0,1,6.45,1.22,1,1,0,0,0,1.34,0,6.49,6.49,0,0,1,4.34-1.52,6.73,6.73,0,0,1,3.88,1.18v9.61s0,.1,0,.12a2,2,0,0,1-.26,1.14q-.08.09-.36.09c-.46,0-.59-.14-.64-.2a1.79,1.79,0,0,1-.34-1.17,1,1,0,0,0-.93-1.06l-1.57-.1a1,1,0,0,0-.72.24,1,1,0,0,0-.34.69,5.31,5.31,0,0,0,1.29,3.84,4.33,4.33,0,0,0,3.25,1.33,3.94,3.94,0,0,0,3-1.25,5.21,5.21,0,0,0,1.18-3.72V301.28a7.24,7.24,0,0,1,2.57-.47,6.45,6.45,0,0,1,4.34,1.52,1,1,0,0,0,1.35,0,6.45,6.45,0,0,1,4.34-1.52,7.08,7.08,0,0,1,3,.65,1,1,0,0,0,1.35-1.29,20.46,20.46,0,0,0-17.46-12.64,3.15,3.15,0,0,0-.61-1.62,1.25,1.25,0,0,0-1.8,0,3.36,3.36,0,0,0-.65,1.64,20.5,20.5,0,0,0-17.22,12.21,1,1,0,0,0,1.2,1.36Z"/>
            <path class="cls-1"
                  d="M469.88,312.67h-4.61a1,1,0,0,0,.36-.75V295.78h3.78a1,1,0,0,0,.77-1.63l-6.92-8.56a1,1,0,0,0-.77-.38,1,1,0,0,0-.78.37l-6.87,8.5-6.86-8.5a1,1,0,0,0-1.56,0l-6.92,8.57a1,1,0,0,0,.77,1.63h3.78v16.14a1,1,0,0,0,.36.75H439.8a1,1,0,0,0-1,1v1.85a1,1,0,0,0,1,1h30.08a1,1,0,0,0,1-1v-1.85A1,1,0,0,0,469.88,312.67Zm-19.54-.75V295.78h3.78a1,1,0,0,0,.72-.31,1,1,0,0,0,.72.31h3.78v16.14a1,1,0,0,0,.36.75H450A1,1,0,0,0,450.34,311.92Z"/>
        </g>
    </g>
</svg>