<svg xmlns="http://www.w3.org/2000/svg" viewBox="0 0 461.97 445.76">
    <defs>
        <style>.cls-1{fill:currentColor;}</style>
    </defs>
    <g id="Layer_2" data-name="Layer 2">
        <g id="_Layer_" data-name="&lt;Layer&gt;">
            <path class="cls-1" d="M181.46,445.76a6.9,6.9,0,0,1-3.69-1.06L3.3,336.45A7,7,0,0,1,0,330.52V131.88a7,7,0,0,1,10.23-6.18l65.33,34.24a7,7,0,1,1-6.48,12.37L14,143.43v183.2l160.5,99.59V227.65l-57.06-28.18A7,7,0,0,1,123.58,187l61,30.11a7,7,0,0,1,3.9,6.26V438.77a7,7,0,0,1-3.59,6.11A7.08,7.08,0,0,1,181.46,445.76Z"/>
            <path class="cls-1" d="M7,138.86A7,7,0,0,1,4,125.55L198,35.24a6.94,6.94,0,0,1,6.08.08l38.29,19.26a7,7,0,1,1-6.27,12.48L200.85,49.33,9.93,138.21A7,7,0,0,1,7,138.86Z"/>
            <path class="cls-1" d="M338.3,166.24a7,7,0,0,1-4.93-2.05L276,106.84A7,7,0,0,1,285.89,97l52.22,52.22L449.86,28.6a7,7,0,0,1,10.25,9.49L343.42,164a7,7,0,0,1-5,2.24Z"/>
            <path class="cls-1" d="M335,238.09A119,119,0,1,1,454.06,119,119.18,119.18,0,0,1,335,238.09ZM335,14A105.08,105.08,0,1,0,440.09,119,105.19,105.19,0,0,0,335,14Z"/>
            <path class="cls-1" d="M181.46,445.76a7,7,0,0,1-7-7V223.32a7,7,0,0,1,3.82-6.23l66.47-33.8a7,7,0,0,1,8.59,1.82,104.7,104.7,0,0,0,115.28,33.42,7,7,0,0,1,9.22,6.61V328.93a7,7,0,0,1-3.48,6L185,444.81A7,7,0,0,1,181.46,445.76Zm7-218.16v199L363.88,324.91V234.47a118.49,118.49,0,0,1-117.7-36.23Z"/>
            <path class="cls-1" d="M120.5,407.93a6.89,6.89,0,0,1-3.69-1.05L68.69,377a7,7,0,0,1-3.3-5.93V166.15a7,7,0,0,1,3.78-6.21L224.75,79.6a7,7,0,0,1,9.88,8.28,104,104,0,0,0-2.87,50.34,7,7,0,0,1-3.67,7.48L127.48,197.47V401a7,7,0,0,1-7,7ZM79.35,367.2l34.16,21.2V193.21A7,7,0,0,1,117.3,187l99.88-51.39A114.71,114.71,0,0,1,216,119,119.87,119.87,0,0,1,217.65,99L79.35,170.4Z"/>
            <path class="cls-1" d="M181.46,382.93a7,7,0,0,1-3.33-13.12L310,298.61a7,7,0,0,1,6.64,12.29L184.78,382.1A7,7,0,0,1,181.46,382.93Z"/>
            <path class="cls-1" d="M447.07,445.76H43a7,7,0,1,1,0-14H447.07a7,7,0,1,1,0,14Z"/>
        </g>
    </g>
</svg>