<svg xmlns="http://www.w3.org/2000/svg" viewBox="0 0 404.56 449.42">
    <defs>
        <style>.cls-1{fill:#1d1d1b;}</style>
    </defs>
    <g id="Layer_2" data-name="Layer 2">
        <g id="Layer_5" data-name="Layer 5">
            <path class="cls-1"
                  d="M367.19,369.39a44.57,44.57,0,0,0-6.62-4V0H156.39V369.39H143.06L119.44,300.1H90.78V221.45L142,162.12l.79-1,.18-.24c7.08-10,8.52-20.84,3.95-29.65-4.27-8.24-12.82-13-23.45-13H26.08c-10.64,0-19.19,4.72-23.46,13-4.56,8.81-3.12,19.61,4,29.65l.17.24,52,60.31v122.2a54.11,54.11,0,1,0,67.67,67.76h172a43.68,43.68,0,0,0,86.35,0h19.72v-42Zm25.37,30H385a43.28,43.28,0,0,0-6.48-18h14.05Zm-19.92,12a31.67,31.67,0,0,1-61.95,0,32.05,32.05,0,0,1-.68-6c0-.2,0-.39,0-.59a31.19,31.19,0,0,1,.47-5.41,31.62,31.62,0,0,1,9.89-18l.62-.54a31.62,31.62,0,0,1,8.95-5.46c.48-.19,1-.37,1.46-.54a31.55,31.55,0,0,1,20.55,0c.5.17,1,.35,1.47.54a31.79,31.79,0,0,1,7.16,4c.84.63,1.64,1.29,2.41,2a31.67,31.67,0,0,1,9.89,18,32.2,32.2,0,0,1,.47,5.41c0,.2,0,.39,0,.59A30.47,30.47,0,0,1,372.64,411.39Zm-243.93-12c.11-1.35.17-2.7.17-4.07a54.19,54.19,0,0,0-38.1-51.69V312.1h20.07l23.62,69.29H304.83a43.44,43.44,0,0,0-6.49,18Zm-15,12a42.08,42.08,0,1,1-48.91-57c1.42-.34,2.86-.62,4.33-.82.55-.07,1.11-.14,1.67-.19,1.32-.13,2.65-.2,4-.2h.33c1.24,0,2.46.07,3.67.19.78.07,1.56.16,2.33.28,1.24.19,2.47.44,3.67.73a42.15,42.15,0,0,1,32.1,40.9c0,1.37-.07,2.73-.2,4.07a40.85,40.85,0,0,1-1,6A41.71,41.71,0,0,1,113.69,411.39ZM13.28,136.75c2.17-4.18,6.71-6.48,12.8-6.48h97.41c6.08,0,10.63,2.3,12.8,6.49,2.41,4.66,1.31,10.88-3,17.09L78.78,217v124.4c-1.21-.09-2.43-.15-3.67-.16h-.33c-1.35,0-2.68.07-4,.17V217L16.22,153.73C12,147.56,10.88,141.39,13.28,136.75ZM168.39,245V135.86h65.08v42h40v-42h75.07v111H168.39Zm0-122V12h65.08V54.92h40V12h75.07V123.86H168.39ZM261.5,12V42.92h-16V12Zm-16,123.86h16v30h-16Zm0,123h16v29h-16Zm-77.08,0h65.08v41h40v-41h75.07V361.68a43.56,43.56,0,0,0-31.66,7.17H168.39Z"/>
            <path class="cls-1"
                  d="M267.22,339.63a8.85,8.85,0,0,0-.05-.89V328.1a1,1,0,0,0-1-1H256.9a1,1,0,0,0-.89.55l-2,4,.73-3.33a1,1,0,0,0-.2-.84,1,1,0,0,0-.78-.38H250.8a1,1,0,0,0-1,1v10.64a8.67,8.67,0,0,0,6.48,9.33v5.33h-5.44a1,1,0,0,0-1,1v2.38a1,1,0,0,0,1,1H266.1a1,1,0,0,0,1-1V354.4a1,1,0,0,0-1-1h-5.44v-5.32A8.68,8.68,0,0,0,267.22,339.63Z"/>
            <path class="cls-1"
                  d="M317,341.43a20.46,20.46,0,0,0-17.46-12.64,3.25,3.25,0,0,0-.61-1.62,1.26,1.26,0,0,0-1.8,0,3.27,3.27,0,0,0-.65,1.64A20.52,20.52,0,0,0,279.23,341a1,1,0,0,0,.16,1.07,1,1,0,0,0,1,.29,7,7,0,0,1,6.44,1.22,1,1,0,0,0,1.35,0,6.45,6.45,0,0,1,4.34-1.52,6.73,6.73,0,0,1,3.88,1.18v9.62a.45.45,0,0,0,0,.11,2,2,0,0,1-.26,1.14.5.5,0,0,1-.36.09c-.46,0-.59-.14-.65-.2a1.82,1.82,0,0,1-.33-1.17,1,1,0,0,0-.94-1.06l-1.56-.1a1,1,0,0,0-.73.24,1,1,0,0,0-.33.69,5.31,5.31,0,0,0,1.29,3.84,4.33,4.33,0,0,0,3.25,1.33,3.91,3.91,0,0,0,3-1.25,5.24,5.24,0,0,0,1.19-3.72V342.54a7.24,7.24,0,0,1,2.57-.47,6.45,6.45,0,0,1,4.34,1.52,1,1,0,0,0,1.35,0,6.45,6.45,0,0,1,4.34-1.52,7.08,7.08,0,0,1,3,.65,1,1,0,0,0,1.35-1.29Z"/>
            <path class="cls-1"
                  d="M231,353.93h-4.61a1,1,0,0,0,.36-.75V337h3.77a1,1,0,0,0,.91-.57,1,1,0,0,0-.13-1.06l-6.92-8.56a1,1,0,0,0-1.55,0L216,335.34l-6.87-8.49a1,1,0,0,0-1.55,0l-6.93,8.56a1,1,0,0,0,.78,1.63h3.78v16.14a1,1,0,0,0,.36.75h-4.61a1,1,0,0,0-1,1v1.85a1,1,0,0,0,1,1H231a1,1,0,0,0,1-1v-1.85A1,1,0,0,0,231,353.93Zm-19.54-.75V337h3.78a1,1,0,0,1,1.44,0h3.78v16.14a1,1,0,0,0,.36.75H211.1A1,1,0,0,0,211.46,353.18Z"/>
            <path class="cls-1"
                  d="M256.28,226.08v5.33h-5.44a1,1,0,0,0-1,1v2.38a1,1,0,0,0,1,1H266.1a1,1,0,0,0,1-1v-2.38a1,1,0,0,0-1-1h-5.44v-5.33a8.66,8.66,0,0,0,6.56-8.45,8.49,8.49,0,0,0-.05-.88V206.11a1,1,0,0,0-1-1H256.9a1,1,0,0,0-.89.55l-2,4,.73-3.32a1,1,0,0,0-.2-.84,1,1,0,0,0-.78-.38H250.8a1,1,0,0,0-1,1v10.64a8.49,8.49,0,0,0-.05.88A8.68,8.68,0,0,0,256.28,226.08Z"/>
            <path class="cls-1"
                  d="M280.43,220.38a7,7,0,0,1,6.44,1.21,1,1,0,0,0,1.35,0,6.5,6.5,0,0,1,4.34-1.52,6.66,6.66,0,0,1,3.88,1.19v9.61a.49.49,0,0,0,0,.12,2,2,0,0,1-.26,1.14.5.5,0,0,1-.36.09c-.46,0-.59-.15-.65-.21a1.81,1.81,0,0,1-.33-1.17,1,1,0,0,0-.94-1.06l-1.56-.1a1,1,0,0,0-.73.25,1,1,0,0,0-.33.69,5.31,5.31,0,0,0,1.29,3.84,4.33,4.33,0,0,0,3.25,1.33,3.91,3.91,0,0,0,3-1.25,5.27,5.27,0,0,0,1.19-3.73V220.55a7.25,7.25,0,0,1,2.57-.48,6.5,6.5,0,0,1,4.34,1.52,1,1,0,0,0,1.35,0,6.5,6.5,0,0,1,4.34-1.52,7.08,7.08,0,0,1,3,.66,1,1,0,0,0,1.11-.18,1,1,0,0,0,.24-1.11,20.44,20.44,0,0,0-17.46-12.64,3.17,3.17,0,0,0-.61-1.62,1.25,1.25,0,0,0-1.8,0,3.23,3.23,0,0,0-.65,1.63A20.53,20.53,0,0,0,279.23,219a1,1,0,0,0,.16,1.06A1,1,0,0,0,280.43,220.38Z"/>
            <path class="cls-1"
                  d="M231,231.94h-4.61a1,1,0,0,0,.36-.75V215.05h3.77a1,1,0,0,0,.91-.57,1,1,0,0,0-.13-1.06l-6.92-8.57a1,1,0,0,0-1.55,0l-6.87,8.5-6.87-8.5a1,1,0,0,0-1.55,0l-6.93,8.57a1,1,0,0,0,.78,1.63h3.78v16.14a1,1,0,0,0,.36.75h-4.61a1,1,0,0,0-1,1v1.85a1,1,0,0,0,1,1H231a1,1,0,0,0,1-1v-1.85A1,1,0,0,0,231,231.94Zm-19.54-.75V215.05h3.78a1,1,0,0,1,1.44,0h3.78v16.14a1,1,0,0,0,.36.75H211.1A1,1,0,0,0,211.46,231.19Z"/>
            <path class="cls-1"
                  d="M256.28,103.08v5.33h-5.44a1,1,0,0,0-1,1v2.38a1,1,0,0,0,1,1H266.1a1,1,0,0,0,1-1v-2.38a1,1,0,0,0-1-1h-5.44v-5.32a8.67,8.67,0,0,0,6.56-8.45,8.49,8.49,0,0,0-.05-.88V83.12a1,1,0,0,0-1-1H256.9a1,1,0,0,0-.89.55l-2,4,.73-3.33a1,1,0,0,0-.2-.84,1,1,0,0,0-.78-.37H250.8a1,1,0,0,0-1,1V93.76a8.49,8.49,0,0,0-.05.88A8.67,8.67,0,0,0,256.28,103.08Z"/>
            <path class="cls-1"
                  d="M280.43,97.39a7,7,0,0,1,6.44,1.21,1,1,0,0,0,1.35,0,6.45,6.45,0,0,1,4.34-1.52,6.66,6.66,0,0,1,3.88,1.19v9.61a.37.37,0,0,0,0,.11,2.06,2.06,0,0,1-.26,1.15.57.57,0,0,1-.36.08c-.46,0-.59-.14-.65-.2a1.82,1.82,0,0,1-.33-1.17,1,1,0,0,0-.94-1.06l-1.56-.1a1,1,0,0,0-.73.25,1,1,0,0,0-.33.68,5.3,5.3,0,0,0,1.29,3.84,4.33,4.33,0,0,0,3.25,1.33,3.93,3.93,0,0,0,3-1.24,5.27,5.27,0,0,0,1.19-3.73V97.55a7.24,7.24,0,0,1,2.57-.47,6.45,6.45,0,0,1,4.34,1.52,1,1,0,0,0,1.35,0,6.45,6.45,0,0,1,4.34-1.52,7.23,7.23,0,0,1,3,.65,1,1,0,0,0,1.11-.18,1,1,0,0,0,.24-1.1,20.44,20.44,0,0,0-17.46-12.64,3.25,3.25,0,0,0-.61-1.63,1.27,1.27,0,0,0-1.8,0,3.27,3.27,0,0,0-.65,1.64A20.51,20.51,0,0,0,279.23,96a1,1,0,0,0,.16,1.06A1,1,0,0,0,280.43,97.39Z"/>
            <path class="cls-1"
                  d="M231,109h-4.61a1,1,0,0,0,.36-.76V92.06h3.77a1,1,0,0,0,.78-1.63l-6.92-8.57a1,1,0,0,0-1.55,0L216,90.36l-6.87-8.5a1,1,0,0,0-1.55,0l-6.93,8.57a1,1,0,0,0-.12,1.06,1,1,0,0,0,.9.57h3.78v16.13a1,1,0,0,0,.36.76h-4.61a1,1,0,0,0-1,1v1.84a1,1,0,0,0,1,1H231a1,1,0,0,0,1-1V110A1,1,0,0,0,231,109Zm-19.54-.76V92.06h3.78a1,1,0,0,1,1.44,0h3.78v16.13a1,1,0,0,0,.36.76H211.1A1,1,0,0,0,211.46,108.19Z"/>
            <path class="cls-1"
                  d="M127,148.88a19.85,19.85,0,0,0,1.07-1.77l4.76-8.84h-54v66.47l47.75-55.28ZM90.78,172.49V150.27H110Z"/>
            <path class="cls-1"
                  d="M22.59,148.88l48.19,55.86V138.27h-54l4.76,8.84C21.84,147.69,22.2,148.29,22.59,148.88Zm36.19,23.61L39.59,150.27H58.78Z"/>
            <path class="cls-1"
                  d="M90.78,375.81a25.07,25.07,0,0,0-9.67-4.93c-.76-.2-1.54-.36-2.33-.49a26.08,26.08,0,0,0-3.67-.31h-.33a26.33,26.33,0,0,0-4,.32c-.56.09-1.12.21-1.67.33a25.23,25.23,0,0,0-4.33,1.42,25.55,25.55,0,0,0-6,3.67,25.23,25.23,0,1,0,40.91,23.58,26.12,26.12,0,0,0,.33-4.08A25.18,25.18,0,0,0,90.78,375.81ZM75.43,408.52c-.21,0-.43,0-.65,0a13.26,13.26,0,0,1-13.19-12.17c0-.35-.05-.71-.05-1.08a13.25,13.25,0,0,1,7.57-11.94,13.58,13.58,0,0,1,1.67-.68,13.23,13.23,0,0,1,4-.62l.33,0a13.42,13.42,0,0,1,3.67.6,13.74,13.74,0,0,1,2.33,1,13.21,13.21,0,0,1,3.67,3q.3.34.57.72a13,13,0,0,1,2.08,4,13.25,13.25,0,0,1,.59,3.9c0,.37,0,.73,0,1.08a13.12,13.12,0,0,1-.54,2.83,13.26,13.26,0,0,1-4.08,6.17A13.12,13.12,0,0,1,75.43,408.52Z"/>
            <path class="cls-1"
                  d="M341.67,383.73A21.17,21.17,0,0,0,320.6,404.8c0,.2,0,.39,0,.59a20.86,20.86,0,0,0,1,6,21,21,0,0,0,40,0,20.86,20.86,0,0,0,1-6c0-.2,0-.39,0-.59a21.17,21.17,0,0,0-21.07-21.07Zm6.2,27.66a9.05,9.05,0,0,1-15.24-6c0-.2,0-.39,0-.59a9.07,9.07,0,0,1,18.14,0c0,.2,0,.39,0,.59A9,9,0,0,1,347.87,411.39Z"/>
        </g>
    </g>
</svg>