<svg xmlns="http://www.w3.org/2000/svg" viewBox="0 0 21.54 13.84">
     <defs>
        <style>.cls-1{fill:currentColor;}</style>
    </defs>
    <g id="Layer_2" data-name="Layer 2">
        <g id="Layer_1-2" data-name="Layer 1">
            <path d="M4.14,6.17H8.66V1.87L.19,3.48V6.17ZM7.5,4.44h-6V4.06h6Zm0,.65h-6V4.7h6Zm0,.65h-6V5.36h6Z"/>
            <path d="M16.93,11.91s0,0,0,0H14.83a0,0,0,0,0,0,0v.17h2.12ZM15.12,12a.07.07,0,0,1-.06.07A.08.08,0,0,1,15,12s0-.05.07-.05S15.12,12,15.12,12Zm1.63,0a.07.07,0,0,1-.06.07s-.06,0-.06-.07a.06.06,0,0,1,.06-.05S16.75,12,16.75,12Z"/>
            <path d="M14.69,12.08v-.17s0,0,0,0H12.59s0,0,0,0v.17h2.13ZM12.88,12a.1.1,0,0,1-.08.05s-.05,0-.05-.05,0-.07.05-.07A.08.08,0,0,1,12.88,12Zm1.63,0a.1.1,0,0,1-.07.05.08.08,0,0,1-.06-.05.07.07,0,0,1,.06-.07A.08.08,0,0,1,14.51,12Z"/>
            <path d="M12.41,12.08v-.17s0,0,0,0H10.31s0,0,0,0v.17l0,0h2.06ZM10.58,12s0,.05-.05.05-.08,0-.08-.05a.08.08,0,0,1,.08-.07S10.58,12,10.58,12Zm1.65,0s0,.05-.07.05-.05,0-.05-.05,0-.07.05-.07A.08.08,0,0,1,12.23,12Z"/>
            <path d="M9.06,0V4.29h9.67V1.59Zm8.19,3.87H10.38V3.48h6.87Zm0-.64H10.38v-.4h6.87Zm0-.67H10.38V2.17h6.87Z"/>
            <polygon
                    points="9.02 12.21 9.9 12.21 9.9 5.76 17.57 5.76 17.57 12.21 18.73 12.21 18.73 4.55 9.02 4.55 9.02 12.21"/>
            <path d="M15.72,11.09l.35-.37h0v-.14s0,0,0,0h-.34s0,0,0,0v.52h0Z"/>
            <path d="M16.46,10.83l-.32.34v.63s0,0,0,0h.34a0,0,0,0,0,0,0v-1s0,0,0,0Z"/>
            <path d="M15.26,11.55h0l.32-.34a0,0,0,0,1,0,0v-.62s0,0,0,0h-.32s0,0,0,0v1l0,0Z"/>
            <path d="M14.83,10.54s0,0,0,0V11.8a0,0,0,0,0,0,0h.31s0,0,0,0V10.57s0,0,0,0Z"/>
            <path d="M16.34,10.54h0l-1.07,1.13,0,0v.11s0,0,0,0h.16l1.1-1.13v-.12s0,0,0,0Z"/>
            <path d="M16.17,10.6l0,0h0s0,0,0,0h0s0,0,0,0h0s0,0,0,0h0Z"/>
            <path d="M16,11.28l-.34.36s0,0,0,0v.14s0,0,0,0h.34s0,0,0,0v-.5a0,0,0,0,0,0,0Z"/>
            <path d="M14.83,10.28h0v.18h2.12v-.18h-2.1Zm.23.15s-.07,0-.07-.06a.07.07,0,0,1,.07-.06.05.05,0,0,1,.06.06A.06.06,0,0,1,15.06,10.43Zm1.63,0a.06.06,0,0,1-.06-.06.06.06,0,0,1,.06-.06.05.05,0,0,1,.06.06A.06.06,0,0,1,16.69,10.43Z"/>
            <rect x="16.59" y="10.54" width="0.34" height="1.28" rx="0.02"/>
            <path d="M15.57,11.76l0,0v0s0,0,0,0h0s0,0,0,0v0a0,0,0,0,0,0,0Z"/>
            <path d="M13.47,11.09l.34-.37h0v-.14s0,0,0,0h-.34s0,0,0,0v.49s0,0,0,0h0Z"/>
            <path d="M14.22,10.83l-.32.34s0,0,0,0v.61a0,0,0,0,0,0,0h.32s0,0,0,0v-1S14.22,10.81,14.22,10.83Z"/>
            <path d="M13,11.55h0l.34-.34v-.64l0,0H13l0,0v1a0,0,0,0,0,0,0Z"/>
            <path d="M12.59,10.54s0,0,0,0V11.8s0,0,0,0h.3s0,0,0,0V10.57s0,0,0,0Z"/>
            <path d="M14.1,10.54h0L13,11.67v.13a.07.07,0,0,0,0,0h.16a0,0,0,0,1,0,0l1.07-1.13v-.12s0,0,0,0Z"/>
            <path d="M13.93,10.6l0,0h0s0,0,0,0h0s0,0,0,0h0a0,0,0,0,0,0,0h0Z"/>
            <path d="M13.78,11.3l-.35.34v.16s0,0,0,0h.34a0,0,0,0,0,0,0v-.48a.07.07,0,0,0,0,0S13.79,11.28,13.78,11.3Z"/>
            <path d="M12.59,10.28h0v.18h2.13v-.18h-2.1Zm.21.15a.06.06,0,0,1-.05-.06s0-.06.05-.06a.09.09,0,0,1,.08.06S12.84,10.43,12.8,10.43Zm1.64,0a.06.06,0,0,1-.06-.06.07.07,0,0,1,.06-.06.09.09,0,0,1,.07.06S14.47,10.43,14.44,10.43Z"/>
            <path d="M14.36,10.54l0,0V11.8a0,0,0,0,0,0,0h.29a0,0,0,0,0,0,0V10.57s0,0,0,0Z"/>
            <path d="M13.32,11.76l0,0s0,0,0,0,0,0,0,0h0a.07.07,0,0,0,0,0v0s0,0,0,0Z"/>
            <path d="M11.19,11.09l.34-.37h0v-.13s0,0,0,0h-.34s0,0,0,0v.51h0Z"/>
            <path d="M11.94,10.83l-.32.34s0,0,0,0v.61a0,0,0,0,0,0,0H12s0,0,0,0v-1s0,0,0,0S11.94,10.81,11.94,10.83Z"/>
            <path d="M10.72,11.55h0l.33-.34s0,0,0,0v-.61s0,0,0,0h-.33s0,0,0,0v.95a0,0,0,0,0,0,0Z"/>
            <path d="M10.31,10.54s0,0,0,0V11.8a0,0,0,0,0,0,0h.3a.07.07,0,0,0,0,0V10.58l0,0Z"/>
            <path d="M11.82,10.54s0,0,0,0l-1.1,1.1v.13s0,0,0,0h.15s0,0,0,0L12,10.69h0v-.11s0,0,0,0Z"/>
            <path d="M11.65,10.61h0l0,0a0,0,0,0,0,0,0h0s0,0,0,0v0h.05Z"/>
            <path d="M11.5,11.3l-.34.34v.16s0,0,0,0h.34s0,0,0,0v-.48s0,0,0,0S11.5,11.28,11.5,11.3Z"/>
            <path d="M10.31,10.28h0v.18h2.14v-.18h-2.1Zm.22.15s-.08,0-.08,0a.09.09,0,0,1,.08-.07s.05,0,.05.07A.05.05,0,0,1,10.53,10.43Zm1.63,0a.05.05,0,0,1-.05,0s0-.07.05-.07a.08.08,0,0,1,.07.07S12.19,10.43,12.16,10.43Z"/>
            <path d="M12.07,10.54s0,0,0,0V11.8s0,0,0,0h.3a0,0,0,0,0,0,0V10.58s0,0,0,0Z"/>
            <path d="M11,11.76v.08h0s0,0,0,0v0s0,0,0,0Z"/>
            <path d="M13.52,9.07l.34-.36h0V8.55a0,0,0,0,0,0,0H13.5s0,0,0,0v.5l0,0h0Z"/>
            <path d="M14.25,8.81l-.32.34h0v.63a0,0,0,0,0,0,0h.34l0,0v-1h-.06Z"/>
            <path d="M13.05,9.54h0l.32-.35s0,0,0,0V8.55s0,0,0,0h-.33s0,0,0,0V9.5s0,0,0,0Z"/>
            <path d="M12.94,9.81l0,0V8.55s0,0,0,0h-.31s0,0,0,0V9.79l0,0Z"/>
            <path d="M13,9.79l0,0h.17l1.09-1.13V8.55a0,0,0,0,0,0,0h-.18L13,9.67h0Z"/>
            <path d="M14,8.59h0s0,0,0-.05H14s0,0,0,0v0h0Z"/>
            <path d="M13.49,9.63s0,0,0,0v.14l0,0h.34l0,0v-.5s0,0,0,0,0,0,0,0Z"/>
            <path d="M12.63,8.25l0,0v.17a0,0,0,0,0,0,0H14.7s0,0,0,0V8.27a0,0,0,0,0,0,0Zm.23.16s-.08,0-.08-.05,0-.06.08-.06.05,0,.05.06A0,0,0,0,1,12.86,8.41Zm1.63,0s-.07,0-.07-.05,0-.06.07-.06,0,0,0,.06S14.53,8.41,14.49,8.41Z"/>
            <path d="M14.41,8.53s0,0,0,0V9.79s0,0,0,0h.29a0,0,0,0,0,0,0V8.55s0,0,0,0Z"/>
            <path d="M13.34,9.77v0a0,0,0,0,0,0,0h0a0,0,0,0,0,0,0v0l0,0Z"/>
            <path d="M12.63,9.86l0,0v.18s0,0,0,0H14.7s0,0,0,0V9.88a0,0,0,0,0,0,0Zm.23.18a.09.09,0,0,1-.08-.07s0-.06.08-.06a.06.06,0,0,1,.05.06S12.89,10,12.86,10Zm1.63,0a.08.08,0,0,1-.07-.07.07.07,0,0,1,.07-.06s0,0,0,.06S14.53,10,14.49,10Z"/>
            <path d="M11.24,9.07l.35-.36a0,0,0,0,0,0,0V8.55s0,0,0,0h-.35s0,0,0,0v.5s0,0,0,0h0Z"/>
            <path d="M12,8.81l-.32.34h0v.63l0,0H12l0,0v-1H12Z"/>
            <path d="M10.8,9.54h0l.32-.33V8.55s0,0,0,0H10.8s0,0,0,0V9.5s0,0,0,0Z"/>
            <path d="M10.67,9.81a0,0,0,0,0,0,0V8.55s0,0,0,0h-.31s0,0,0,0V9.79l0,0Z"/>
            <path d="M10.76,9.79a0,0,0,0,0,0,0H11L12,8.68l0,0V8.55s0,0,0,0h-.17L10.76,9.67h0Z"/>
            <path d="M11.71,8.59h0v0a0,0,0,0,0,0,0h0s0,0,0,0v0h0s0,0,0,0Z"/>
            <path d="M11.21,9.63v.18h.35a0,0,0,0,0,0,0V9.27h-.05Z"/>
            <path d="M10.36,8.25l0,0v.17s0,0,0,0h2.09s0,0,0,0V8.25Zm.22.18s-.05,0-.05-.07,0-.06.05-.06a.07.07,0,0,1,.07.06A.08.08,0,0,1,10.58,8.43Zm1.63,0s-.05,0-.05-.07,0-.06.05-.06.07,0,.07.06A.08.08,0,0,1,12.21,8.43Z"/>
            <path d="M12.14,8.53s0,0,0,0V9.79l0,0h.31V8.55s0,0,0,0Z"/>
            <path d="M11.08,9.77s0,0,0,0,0,0,0,0h0s0,0,0,0v0a0,0,0,0,0,0,0Z"/>
            <path d="M10.36,9.88h0v.18s0,0,0,0h2.09s0,0,0,0V9.88h-2.1Zm.22.16s-.05,0-.05-.07a.06.06,0,0,1,.05-.06s.07,0,.07.06A.08.08,0,0,1,10.58,10Zm1.63,0s-.05,0-.05-.07,0-.06.05-.06a.07.07,0,0,1,.07.06A.08.08,0,0,1,12.21,10Z"/>
            <path d="M12.07,7.06l.34-.35s0,0,0,0V6.56s0,0,0,0h-.34a0,0,0,0,0,0,0v.49l0,0h0S12.07,7.08,12.07,7.06Z"/>
            <path d="M12.82,6.82l-.33.33v.63s0,0,0,0h.32s0,0,0,0v-1h-.06Z"/>
            <path d="M11.62,7.53h0L12,7.19V6.56a0,0,0,0,0,0,0h-.32a0,0,0,0,0,0,0v1s0,0,0,0Z"/>
            <path d="M11.17,7.78s0,0,0,0h.31s0,0,0,0V6.56s0,0,0,0h-.31s0,0,0,0Z"/>
            <path d="M12.88,6.56s0,0,0,0h-.16L11.59,7.66v.12a0,0,0,0,0,0,0h.17l1.07-1.11a0,0,0,0,1,0,0Z"/>
            <path d="M12.54,6.6l0,0v0h0s0,0,0,0v0h0Z"/>
            <path d="M12,7.64v.14a0,0,0,0,0,0,0h.34s0,0,0,0V7.29s0,0,0,0l0,0Z"/>
            <path d="M13.29,6.28a0,0,0,0,0,0,0H11.19s0,0,0,0v.17s0,0,0,0h2.08l0,0Zm-1.89.14a0,0,0,0,1-.05,0s0-.08.05-.08a.09.09,0,0,1,.08.08S11.44,6.42,11.4,6.42Zm1.64,0s-.06,0-.06,0,0-.08.06-.08a.08.08,0,0,1,.07.08S13.08,6.42,13,6.42Z"/>
            <path d="M13,6.53a0,0,0,0,0,0,0V7.78a0,0,0,0,0,0,0h.3a0,0,0,0,0,0,0V6.56a0,0,0,0,0,0,0Z"/>
            <path d="M11.91,7.77s0,0,0,0h0a0,0,0,0,0,0,0h0a0,0,0,0,0,0,0h0Z"/>
            <path d="M11.17,8.07a0,0,0,0,0,0,0h2.08l0,0V7.89l0,0H11.19a0,0,0,0,0,0,0ZM13,7.91a.08.08,0,0,1,.07.07s0,0-.07,0S13,8,13,8A.07.07,0,0,1,13,7.91Zm-1.64,0a.09.09,0,0,1,.08.07s0,0-.08,0a0,0,0,0,1-.05,0S11.37,7.91,11.4,7.91Z"/>
            <polygon points="18.99 12.5 19.85 12.99 0.11 12.99 0 12.5 18.99 12.5"/>
            <polygon points="21.54 13.85 0.34 13.85 0.19 13.36 20.66 13.36 21.54 13.85"/>
            <path d="M8.65,6.37H.12v5.84H8.65ZM3,9.31H1.34V7.44H3Zm0,2.4H1.34V9.83H3Zm2.26-2.4H3.58V7.44H5.29Zm0,2.4H3.58V9.83H5.29Zm2.24-2.4H5.85V7.44H7.53Zm0,2.4H5.85V9.83H7.53Z"/>
        </g>
    </g>
</svg>