<svg xmlns="http://www.w3.org/2000/svg" viewBox="0 0 484.17 445.75">
    <defs>
        <style>.cls-1{fill:currentColor;}</style>
    </defs>
    <g id="Layer_2" data-name="Layer 2">
        <g id="_Layer_" data-name="&lt;Layer&gt;">
            <path class="cls-1" d="M453.9,445.75H30.26a7,7,0,0,1-7-7V97.2a7,7,0,0,1,14,0V431.79H446.92V97.2a7,7,0,0,1,14,0V438.77A7,7,0,0,1,453.9,445.75Z"/>
            <path class="cls-1" d="M477.18,109.4a7.08,7.08,0,0,1-1.52-.17L242.08,56.91,8.51,109.23A7,7,0,0,1,0,102.42V64.59a7,7,0,0,1,5.32-6.78L240.42.2a7,7,0,0,1,3.33,0l235.1,57.61a7,7,0,0,1,5.32,6.78v37.83a7,7,0,0,1-7,7ZM242.08,42.77a7.25,7.25,0,0,1,1.53.17L470.2,93.69V70.07L242.08,14.17,14,70.07V93.69L240.55,42.94A7.25,7.25,0,0,1,242.08,42.77Z"/>
            <path class="cls-1" d="M385.24,445.75H98.93a7,7,0,0,1-7-7V166.43a7,7,0,0,1,7-7H385.24a7,7,0,0,1,7,7V438.77A7,7,0,0,1,385.24,445.75Zm-279.33-14H378.25V173.41H105.91Z"/>
            <path class="cls-1" d="M385.24,210.66H98.93a7,7,0,0,1-7-7V166.43a7,7,0,0,1,7-7H385.24a7,7,0,0,1,7,7v37.24A7,7,0,0,1,385.24,210.66Zm-279.33-14H378.25V173.41H105.91Z"/>
            <path class="cls-1" d="M385.24,247.9H98.93a7,7,0,0,1-7-7V203.67a7,7,0,0,1,7-7H385.24a7,7,0,0,1,7,7v37.25A7,7,0,0,1,385.24,247.9Zm-279.33-14H378.25V210.66H105.91Z"/>
            <path class="cls-1" d="M385.24,445.75H317.15a7,7,0,0,1-7-7V370.68a7,7,0,0,1,7-7h68.09a7,7,0,0,1,7,7v68.09A7,7,0,0,1,385.24,445.75Zm-61.11-14h54.12V377.67H324.13Z"/>
            <path class="cls-1" d="M317.15,445.75H225.79a7,7,0,0,1-7-7v-85a7,7,0,0,1,7-7h91.36a7,7,0,0,1,7,7v85A7,7,0,0,1,317.15,445.75Zm-84.38-14h77.4v-71h-77.4Z"/>
            <path class="cls-1" d="M287.47,384.65h-32a7,7,0,0,1-7-7V353.81a7,7,0,0,1,7-7h32a7,7,0,0,1,7,7v23.86A7,7,0,0,1,287.47,384.65Zm-25-14h18v-9.89h-18Z"/>
            <path class="cls-1" d="M477.18,445.75H7a7,7,0,0,1,0-14h470.2a7,7,0,1,1,0,14Z"/>
            <path class="cls-1" d="M387.56,173.41H96.6a20.37,20.37,0,1,1,0-40.74h291a20.37,20.37,0,0,1,0,40.74Zm-291-26.77a6.4,6.4,0,1,0,0,12.8h291a6.4,6.4,0,0,0,0-12.8Z"/>
        </g>
    </g>
</svg>