<svg xmlns="http://www.w3.org/2000/svg" viewBox="0 0 604.82 428.39">
    <defs>
        <style>.cls-1{fill:currentColor;}</style>
    </defs>
    <g id="Layer_2" data-name="Layer 2">
        <g id="Layer_5" data-name="Layer 5">
            <path class="cls-1"
                  d="M157.72,168.8H479.85V104.24H92.69V168.8h65Zm-53-52.56h41V156.8h-41Zm53.69,0h41V156.8h-41Zm53.68,0h41V156.8h-41Zm53.69,0h41V156.8h-41Zm53.69,0h41V156.8h-41Zm53.69,0h41V156.8h-41Zm53.68,0h41V156.8h-41Z"/>
            <path class="cls-1"
                  d="M596.65,362.86l.24-31.72v-.59l-.25-1.49-14-46.3c-3-17.41-19.69-31.51-37.38-31.51h-13V97h40.23V0H0V97H40.23V380.36H259.82v18.09h52a43.19,43.19,0,0,0,82.22,0H474v0l6,0h6v0l5.48,0a43.2,43.2,0,0,0,82.25.06h31.12V362.86Zm-35.83,35.59a31.19,31.19,0,0,1-56.47,0l-.06-.13a31.27,31.27,0,0,1-2.88-12c0-.38,0-.77,0-1.15a30.86,30.86,0,0,1,.38-4.83,32,32,0,0,1,.88-3.93c.21-.7.43-1.39.68-2.07a31.14,31.14,0,0,1,2.69-5.5l.32-.5a31.07,31.07,0,0,1,26-14.37h.29a31,31,0,0,1,21.75,8.87,31.41,31.41,0,0,1,4.82,6,31.24,31.24,0,0,1,4.63,16.33c0,.28,0,.55,0,.83s0,.29,0,.43A30.11,30.11,0,0,1,563,392l-.09.43A31.14,31.14,0,0,1,561,398C561,398.17,560.89,398.31,560.82,398.45Zm-74.86-12V284.47a21.24,21.24,0,0,1,21.22-21.22h38.11c12,0,23.71,10,25.6,21.83l.07.4,13.92,46.16-.24,31.22H569.55a43.21,43.21,0,0,0-37-20.87h-.29a44,44,0,0,0-6,.46,42.73,42.73,0,0,0-6,1.33,43.41,43.41,0,0,0-27.51,24.58,43.81,43.81,0,0,0-3.41,16.83c0,.4,0,.81,0,1.21Zm-12,0H396.1c0-.42,0-.84,0-1.26a42.9,42.9,0,0,0-.28-4.83,42,42,0,0,0-3.13-12c-.45-1.06-1-2.1-1.49-3.12-.13-.25-.26-.51-.4-.76a43.41,43.41,0,0,0-9.92-12.17,43.9,43.9,0,0,0-6-4.29,43,43,0,0,0-9-4c-.33-.11-.67-.2-1-.3a42.65,42.65,0,0,0-6-1.29,43.91,43.91,0,0,0-6-.42h0a43.14,43.14,0,0,0-9.91,1.16A43.15,43.15,0,0,0,331,348a43.44,43.44,0,0,0-17.88,20.38,42.8,42.8,0,0,0-2,6,44.07,44.07,0,0,0-1.1,6,45.39,45.39,0,0,0-.27,4.83c0,.42,0,.84,0,1.26H271.82v-51.9h202l.07,33.81v12Zm-92.79,12a31.19,31.19,0,0,1-56.47,0,30.9,30.9,0,0,1-2.1-6,30.54,30.54,0,0,1-.83-6q0-.63,0-1.26a32.12,32.12,0,0,1,.37-4.83,30.93,30.93,0,0,1,1.56-6,32.07,32.07,0,0,1,3-6A31.58,31.58,0,0,1,331,363a31.16,31.16,0,0,1,21.91-9h0a30.85,30.85,0,0,1,11,2,31.42,31.42,0,0,1,18.26,18.36,31.44,31.44,0,0,1,1.94,10.83c0,.42,0,.84,0,1.26a31.31,31.31,0,0,1-.83,6A30.93,30.93,0,0,1,381.16,398.45ZM143.05,278h2.55v5.36h-2.55Zm14.55,17.36V276h7v49.69h-42.5V276h9v19.39Zm39.29,2.74h2.55v5.36h-2.55Zm14.55,17.36V297.21h8v28.48H176.92V297.21h8v18.28ZM172,340.8v5.36h-2.55V340.8Zm-49.95-.92h35.4v18.28H184V339.88h35.4v28.48H122.06Zm109.35-2.19V285.21H176.56V264h-66.5V368.36H104V216.86H267.24a33.07,33.07,0,0,0-7.42,20.89V368.36H231.41ZM12,12H27.67V85H12Zm27.67,0H58.09V85H39.67ZM560.53,85H544.87V12h15.66ZM532.87,12V85H514.44V12ZM502.44,63.07V85H477V12h25.4ZM465,12V85H446.61V12ZM434.61,63.07V85H409.22V12h25.39ZM397.22,12V85H378.79V12ZM366.79,63.07V85h-25.4V12h25.4ZM329.39,12V85H311V12ZM299,63.07V85H273.57V12H299ZM261.57,12V85H243.14V12ZM231.14,63.07V85h-25.4V12h25.4ZM193.74,12V85H175.32V12ZM163.32,63.07V85h-25.4V12h25.4ZM125.92,12V85H107.49V12ZM95.49,63.07V85H70.09V12h25.4ZM52.23,97H520.3V251.25H507.18a33,33,0,0,0-21.5,7.93l-.09-42.32h13.9V177H73v39.88H92v151.5H52.23ZM457.05,322.55H271.82v-84.8A21.38,21.38,0,0,1,293,216.53H473.59v.33l.22,105.69H457.05ZM480.53,189h7v15.88h-1.92v-.33H293a33.72,33.72,0,0,0-4.62.33H85V189H480.53ZM592.82,386.45H575.75c0-.17,0-.33,0-.49s0-.51,0-.77a42.91,42.91,0,0,0-1.26-10.33h18.29Z"/>
            <path class="cls-1"
                  d="M549.1,368.86A23.25,23.25,0,0,0,532.59,362h-.29a23,23,0,0,0-6,.86l-.13,0a23.11,23.11,0,0,0-5.87,2.61,23.75,23.75,0,0,0-3.72,2.89l-.51.5a23.3,23.3,0,0,0-4,5.5l-.25.5a23,23,0,0,0-1.93,5.5,23.28,23.28,0,0,0-.5,4.83c0,.37,0,.74,0,1.11a.76.76,0,0,1,0,.15,23,23,0,0,0,1.08,5.84.75.75,0,0,1,.05.16,23.47,23.47,0,0,0,2.88,5.83l.13.17a23.2,23.2,0,0,0,38.13,0l.26-.37a23.34,23.34,0,0,0,2.75-5.63c0-.13.09-.26.13-.38a23.32,23.32,0,0,0,1-5.62c0-.13,0-.26,0-.39,0-.29,0-.58,0-.87a23,23,0,0,0-2.43-10.33A23.29,23.29,0,0,0,549.1,368.86Zm-5.35,17.59a11.13,11.13,0,0,1-2.35,5.68l-.25.32a11.21,11.21,0,0,1-17.13,0l-.19-.23a11.17,11.17,0,0,1-2.41-5.77,1.49,1.49,0,0,1,0-.21c0-.35,0-.7,0-1.05A11.23,11.23,0,0,1,532.3,374h.29a11,11,0,0,1,4.41.91,11.24,11.24,0,0,1,6.82,10.33c0,.31,0,.62,0,.93Z"/>
            <path class="cls-1"
                  d="M373.48,374.36A23.19,23.19,0,0,0,337,368.27l-.1.09a23.44,23.44,0,0,0-6.73,12,23.28,23.28,0,0,0-.5,4.83q0,.63,0,1.26a23.29,23.29,0,0,0,23.21,22,23.28,23.28,0,0,0,22.07-16,23,23,0,0,0,1.13-6c0-.42,0-.84,0-1.26a23.28,23.28,0,0,0-.51-4.83A23,23,0,0,0,373.48,374.36Zm-12,18.09a11.24,11.24,0,0,1-19.73-6c0-.42-.07-.84-.07-1.26a11.27,11.27,0,0,1,8.25-10.83,11.27,11.27,0,0,1,14.23,10.83,10.66,10.66,0,0,1-.08,1.26A11.15,11.15,0,0,1,361.49,392.45Z"/>
            <path class="cls-1"
                  d="M526.3,334.55h42.28l-18.32-57.82H498.58v57.82H526.3Zm-15.72-45.82h30.89l10.72,33.82H510.58Z"/>
        </g>
    </g>
</svg>